<svg id="Layer_1" data-name="Layer 1" xmlns="http://www.w3.org/2000/svg" xmlns:xlink="http://www.w3.org/1999/xlink" viewBox="0 0 410 239.77"><defs><style>.cls-1{fill:#313b75;}.cls-2{fill:#242e6c;}.cls-3{fill:#f24b46;}.cls-4{fill:#fd8857;}.cls-5{fill:#f9795a;}.cls-6{fill:#b1c9f6;}.cls-7{fill:#1b2251;}.cls-8{fill:#cba4e3;}.cls-9{fill:#ff938f;}.cls-10{fill:#7f22ba;}.cls-11{fill:#ffa39f;}.cls-12{fill:#9e30ca;}.cls-13{fill:#dfdcf7;}.cls-14{fill:#efecea;}.cls-15{fill:#eb3668;}.cls-16{fill:#ff7d78;}.cls-17{fill:#384179;}.cls-18{fill:#6615b2;}.cls-19{fill:#c643db;}.cls-20{fill:url(#Áåçûìÿííûé_ãðàäèåíò_3);}.cls-21{fill:url(#Áåçûìÿííûé_ãðàäèåíò_3-2);}.cls-22{fill:url(#Áåçûìÿííûé_ãðàäèåíò_3-3);}.cls-23{fill:url(#Áåçûìÿííûé_ãðàäèåíò_3-4);}.cls-24{fill:url(#Áåçûìÿííûé_ãðàäèåíò_8);}.cls-25{fill:#ecebfc;}</style><linearGradient id="Áåçûìÿííûé_ãðàäèåíò_3" x1="133.91" y1="142.58" x2="153.71" y2="142.58" gradientUnits="userSpaceOnUse"><stop offset="0" stop-color="#f9795a"/><stop offset="1" stop-color="#ffefe9"/></linearGradient><linearGradient id="Áåçûìÿííûé_ãðàäèåíò_3-2" x1="146.39" y1="140.59" x2="167.26" y2="140.59" xlink:href="#Áåçûìÿííûé_ãðàäèåíò_3"/><linearGradient id="Áåçûìÿííûé_ãðàäèåíò_3-3" x1="157.94" y1="137.15" x2="180.66" y2="137.15" xlink:href="#Áåçûìÿííûé_ãðàäèåíò_3"/><linearGradient id="Áåçûìÿííûé_ãðàäèåíò_3-4" x1="170.69" y1="132.08" x2="193.41" y2="132.08" xlink:href="#Áåçûìÿííûé_ãðàäèåíò_3"/><linearGradient id="Áåçûìÿííûé_ãðàäèåíò_8" x1="133.09" y1="110.51" x2="160.81" y2="110.51" gradientUnits="userSpaceOnUse"><stop offset="0" stop-color="#f9795a"/><stop offset="1" stop-color="#eb3668"/></linearGradient></defs><path class="cls-1" d="M197.11,83.64l-4.8-.11c1.54,2,1.89,3.84.92,5.4s-3.26,2.9-6.69,3.89A62.08,62.08,0,0,0,104.25,14c-.92.39-1.83.8-2.71,1.23h0c-2.67-.81-5.27-1.48-7.77-2-12.66-2.57-21.65-.79-25.29,5C65,23.71,66.88,32,73.77,41.67h0C72.84,43.39,72,45.16,71.24,47c-.59,1.37-1.11,2.74-1.58,4.14-12.95.77-19.88,3-22.4,7.17-2.93,4.81,1.08,11.26,13.88,17.52,1.76.87,3.65,1.72,5.64,2.57a60.52,60.52,0,0,0,4.46,16.88,62.05,62.05,0,0,0,114.07.59c6.32-1.31,10.48-3.36,12.13-6.07C198.59,87.92,198.45,85.84,197.11,83.64ZM182.29,93.79a94.94,94.94,0,0,1-15.58,1.26,227,227,0,0,1-31.93-2.15c1-2.1,1.92-4.27,2.84-6.49A87,87,0,0,0,148,89.23a53,53,0,0,0,10.33,1.14c7.23,0,12.41-2.08,15-6.14a10.47,10.47,0,0,0,1-2.13H170.6c-.06.11-.13.22-.2.33-1.9,3-6.14,4.57-12.1,4.57a48.82,48.82,0,0,1-9.67-1.08,83.05,83.05,0,0,1-9.73-2.63q1.33-3.33,2.58-6.78c2.25-6.19,4.17-12.33,5.73-18.23A155.86,155.86,0,0,0,170,59.85q7.55,0,15.65-.61a58.85,58.85,0,0,1,1.2,11.89A58.12,58.12,0,0,1,182.29,93.79Zm-76.77,30.76c-1.79-.65-2.7-3.22-3.15-5.27a45.83,45.83,0,0,1-.37-13.11c.23-2.71.61-5.59,1.12-8.6a160.67,160.67,0,0,1,21.71,7.51c-1.6,2.75-3.21,5.31-4.83,7.62a46.41,46.41,0,0,1-8.69,9.83C109.66,123.81,107.31,125.2,105.52,124.55Zm20.93-22.35a164,164,0,0,0-22.74-7.87c.27-1.4.57-2.82.89-4.26,2.14.48,4.32,1,6.51,1.41,6.44,1.31,12.86,2.43,19.14,3.34C129,97.39,127.73,99.86,126.45,102.2Zm-13.92-13c-2.48-.51-4.93-1.05-7.34-1.6,1.13-4.72,2.52-9.64,4.15-14.64a143.93,143.93,0,0,0,25.18,12.41Q133,89,131.38,92.43C125.2,91.55,118.88,90.45,112.53,89.15ZM91.9,25.49a37.76,37.76,0,0,0,2.28,4,54.69,54.69,0,0,0,13.89,14.24,71,71,0,0,0,7.31,4.55c-2.36,5.14-4.6,10.63-6.67,16.32-.39,1.07-.76,2.13-1.13,3.19-12.34-8-22.79-17.26-29.65-26.18h0a59.39,59.39,0,0,1,5.89-8.3q1.37-1.61,2.85-3.12l.41-.41A57.72,57.72,0,0,1,91.9,25.49Zm52.78-8.9c1.79.65,2.7,3.22,3.14,5.26A45.92,45.92,0,0,1,148.19,35a131.73,131.73,0,0,1-3.42,19.6q-3.17-.55-6.18-1.24a88.37,88.37,0,0,1-18.88-6.51,132.47,132.47,0,0,1,10.48-18.38,45.91,45.91,0,0,1,8.69-9.83c1.37-1.06,3.2-2.19,4.81-2.19A2.79,2.79,0,0,1,144.68,16.59Zm-7.05,39.89c2.05.48,4.16.9,6.32,1.28-1.52,5.7-3.38,11.64-5.56,17.63-.83,2.31-1.7,4.59-2.6,6.82a140.74,140.74,0,0,1-25.35-12.59c.44-1.29.89-2.58,1.36-3.87,2-5.57,4.21-10.94,6.51-16A91.61,91.61,0,0,0,137.63,56.48ZM169.72,29.8A58.2,58.2,0,0,1,184.87,56,171,171,0,0,1,148,55.08a134.05,134.05,0,0,0,3.45-19.83c.57-6.56.5-14.34-2.16-18.71.62.24,1.23.48,1.84.74A58.07,58.07,0,0,1,169.72,29.8ZM128.41,12.68a58.37,58.37,0,0,1,11.92,1.22c-4.59,2-9.28,7.56-12.84,12.66a137.38,137.38,0,0,0-10.71,18.76,64.82,64.82,0,0,1-6.56-4.08c-9.77-6.93-14.08-14.4-15.64-17.78a58.85,58.85,0,0,1,7.55-4.55h0c1.07-.54,2.17-1.05,3.28-1.52l.24-.11.06,0,.71-.3.19-.07A58,58,0,0,1,128.41,12.68ZM71.32,20c1.9-3,6.14-4.58,12.1-4.58a49.58,49.58,0,0,1,9.67,1.08c1.35.28,2.73.6,4.14,1h0a60.68,60.68,0,0,0-12.71,9.8c-.8.78-1.58,1.6-2.33,2.45-1,1-1.85,2.13-2.71,3.23a62.31,62.31,0,0,0-3.84,5.5h0C70.37,30.63,68.79,24,71.32,20Zm3.22,28.39c.52-1.2,1.06-2.38,1.64-3.53h0C83.4,53.88,94,63.1,106.47,71.1c-1.76,5.37-3.26,10.64-4.48,15.69a241.5,241.5,0,0,1-24.77-7.31c-1.54-.55-3-1.12-4.47-1.69-.85-.33-1.69-.67-2.51-1C70.12,75.51,70,74.23,70,73c0-.62,0-1.22,0-1.83S70,69.7,70,69a59.13,59.13,0,0,1,2.68-15.5c.27-.85.55-1.69.87-2.52S74.18,49.24,74.54,48.39ZM64,74C52.84,68.52,47.74,63.26,50,59.52c1.84-3,8.55-5.07,18.82-5.83A60.48,60.48,0,0,0,66.51,66.8c-.09,1.32-.14,2.64-.16,4v.35c0,1.34.05,2.68.13,4C65.63,74.75,64.81,74.36,64,74Zm8.47,6.69q2.26.86,4.65,1.68c7.31,2.54,15.51,4.89,24.27,7-.31,1.42-.61,2.82-.88,4.2L98.37,93A130.83,130.83,0,0,0,72.94,89.6,56.22,56.22,0,0,1,70.64,80Zm2.06,13.21c-.13-.31-.26-.62-.38-.94a131.09,131.09,0,0,1,23.48,3.29c.76.17,1.53.35,2.29.54-.55,3.2-1,6.25-1.21,9.12-.47,5.44-.5,11.71,1,16.19a58.74,58.74,0,0,1-25.19-28.2ZM151.15,125a58.58,58.58,0,0,1-40.46,1.86c4.32-2.26,8.66-7.47,12-12.26,1.72-2.47,3.45-5.21,5.15-8.17A165.56,165.56,0,0,1,156,122.68Q153.62,123.93,151.15,125Zm18.57-12.52a57.72,57.72,0,0,1-10.64,8.42,168.3,168.3,0,0,0-29.62-17.34c1.43-2.61,2.83-5.37,4.2-8.25A253.15,253.15,0,0,0,160.6,97.5c2.17.06,4.28.06,6.33,0A113.52,113.52,0,0,0,181,96.6,58,58,0,0,1,169.72,112.46Z" transform="translate(0)"/><path class="cls-2" d="M322.41,223.09c-1.32-5.14-10.27-1.16-17.63,3.15-.35-.55-.7-1.08-1.07-1.62,5.27-3.27,12.68-8.71,9.86-12s-8.23,4.13-11.63,9.6c-9.12-11.84-22.65-20.27-22.65-20.27S335.74,155,293.56,130.3s-74.22,62.31-74.22,62.31S190.52,165.92,163,175.78c-28.26,10.12-10.6,28.88-35.14,33.95-2.89-11.06-8.23-26.66-15.54-27.58-9.64-1.21-5.58,10.87,9.07,28.5-2.84.26-6.07.39-9.77.38-39.36-.12-29.26,28.22-29.26,28.22l227.58.52a28,28,0,0,0-2.29-8.18C315.45,230.36,323.66,227.92,322.41,223.09Z" transform="translate(0)"/><path class="cls-3" d="M204.66,114.18l-9.92,118s-1,7.16,4.28,7.17c8.75,0,43.54,0,43.54,0s-6.58-1.49-6.5-4.84c.09-3.95,11.6-121.45,11.6-121.45Z" transform="translate(0)"/><path class="cls-4" d="M245.39,237.21c-1.72,0-35,.11-43.48,0-3.71-.05-4.36-3.3-4.39-5.41a10.23,10.23,0,0,1,.11-1.76l.26-3.06.66-7.82.58-6.91.74-8.87.63-7.49L207.56,112l43-1.12s-4.84,49.17-8.27,85c-.38,4-.75,7.81-1.09,11.38-.1,1.14-.21,2.25-.31,3.34-.32,3.38-.61,6.49-.86,9.24-.14,1.45-.26,2.79-.37,4-.44,4.83-.69,7.91-.7,8.5a4.89,4.89,0,0,0,.09,1C239.74,237.09,244.74,237.21,245.39,237.21Z" transform="translate(0)"/><polygon class="cls-5" points="100.25 49.96 124.42 147.07 127.73 160.37 138.99 205.59 348.17 205.59 306.67 49.96 100.25 49.96"/><polygon class="cls-4" points="100.24 49.96 96.89 51.08 134.53 208.97 138.99 205.6 100.24 49.96"/><polygon class="cls-3" points="134.53 208.97 342.43 208.97 348.17 205.6 138.99 205.6 134.53 208.97"/><rect class="cls-3" x="207.54" y="237.26" width="45.01" height="2.14"/><polygon class="cls-3" points="241.11 208.97 240.88 210.61 198.55 219.16 199.13 212.25 199.4 208.97 241.11 208.97"/><path class="cls-5" d="M245.39,237.21c-1.72,0-35,.11-43.48,0-3.71-.05-4.36-3.3-4.39-5.41l42.13-7.93c-.44,4.83-.69,7.91-.7,8.5a4.89,4.89,0,0,0,.09,1C239.74,237.09,244.74,237.21,245.39,237.21Z" transform="translate(0)"/><polygon class="cls-4" points="230.88 174.09 138.99 205.6 127.73 160.37 230.88 174.09"/><polygon class="cls-6" points="100.24 49.96 306.67 49.96 340.16 175.04 131.38 175.04 100.24 49.96"/><path class="cls-3" d="M249.13,190.85a7.09,7.09,0,0,0-6.64-5.55,4.44,4.44,0,0,0-4.47,5.55,7.06,7.06,0,0,0,6.63,5.56A4.45,4.45,0,0,0,249.13,190.85Z" transform="translate(0)"/><polygon class="cls-2" points="330.43 169.62 137.15 169.62 115.26 82.43 113.58 75.74 112.15 70.04 108.8 56.66 299.29 56.66 302.97 70.04 304.55 75.74 306.39 82.43 330.43 169.62"/><polygon class="cls-7" points="302.97 70.04 112.15 70.04 108.8 56.66 299.29 56.66 302.97 70.04"/><path class="cls-8" d="M117.93,61a1.27,1.27,0,0,0-1.25,1.68,2.28,2.28,0,0,0,2.08,1.67A1.26,1.26,0,0,0,120,62.71,2.29,2.29,0,0,0,117.93,61Z" transform="translate(0)"/><path class="cls-8" d="M123.49,61a1.27,1.27,0,0,0-1.26,1.68,2.29,2.29,0,0,0,2.09,1.67,1.26,1.26,0,0,0,1.25-1.67A2.28,2.28,0,0,0,123.49,61Z" transform="translate(0)"/><path class="cls-8" d="M131.56,62.71A2.29,2.29,0,0,0,129.47,61a1.27,1.27,0,0,0-1.26,1.68,2.29,2.29,0,0,0,2.09,1.67A1.27,1.27,0,0,0,131.56,62.71Z" transform="translate(0)"/><path class="cls-9" d="M35.5,82.87a4.91,4.91,0,0,0-.34-3.53c-.93-1.68.57-2.84.19-3.35s-2.84-.45-3.69,2,.58,5.18.58,5.18Z" transform="translate(0)"/><path class="cls-10" d="M25.14,96.26a3,3,0,0,0,3.8-2.42L31.4,83.15s.51-.83,2.28-.76c1.93.08,2.45,1,2.45,1s1.2,18.82-4.38,21.48S19.87,94.68,25.14,96.26Z" transform="translate(0)"/><path class="cls-7" d="M36.69,239.23H21c-1.11-1-1.48-6.95-1.48-6.95s4.87-4.39,6.46-.92c1.51,3.3,5.69,5,8.18,5.49A2.78,2.78,0,0,1,36.69,239.23Z" transform="translate(0)"/><path class="cls-7" d="M17.68,239.23H2c-1.12-1-1.49-6.95-1.49-6.95s4.87-4.39,6.46-.92c1.51,3.3,5.69,5,8.18,5.49A2.81,2.81,0,0,1,17.68,239.23Z" transform="translate(0)"/><path class="cls-7" d="M29,157.05s-2.23,14.28-10.56,39.64S8.94,233,8.94,233L0,232.77s-.08-27.71,3.76-40.46.83-46,.83-46Z" transform="translate(0)"/><path class="cls-1" d="M33.31,147.13a346.61,346.61,0,0,1-3.4,48c-3.73,26.42-2.47,37.64-2.47,37.64l-8.91.3s-5.33-26.44-3.81-39.66S7.43,148,7.43,148Z" transform="translate(0)"/><path class="cls-11" d="M16.05,96.77l4.2,3.12,6.08-1.28c-.08-.56-.48-2.85-.85-4.94l-.06-.36c-.32-1.77-.59-3.29-.59-3.29l-5.67-2.83L17,86.13s.16,2,.19,2.25A18.25,18.25,0,0,1,16.05,96.77Z" transform="translate(0)"/><path class="cls-10" d="M25.91,95.2c-.14-.06-8.27-2.46-9.15-2.17s-1.41,2-1.41,2l13.31,3A6.64,6.64,0,0,0,25.91,95.2Z" transform="translate(0)"/><path class="cls-12" d="M4,149.79c1.38,6.29,24.33,7,30.25,1.33.67-.65.7-3.68.45-7.77-.5-8-2.09-20-2.15-26.11a48.72,48.72,0,0,0-1-8.74A72.16,72.16,0,0,0,28.66,98s-11.21-3.62-13.31-3C5.24,98,2.62,143.5,4,149.79Z" transform="translate(0)"/><path class="cls-10" d="M34.7,143.35c-.5-8-2.09-20-2.15-26.11a48.72,48.72,0,0,0-1-8.74l-6.75-1.19S18.23,134.25,34.7,143.35Z" transform="translate(0)"/><path class="cls-9" d="M17.65,88.47c1.25,2.38,5.9,4.45,7.83,5.2l-.06-.36c-.32-1.77-.59-3.29-.59-3.29l-5.67-2.83C17.9,87.17,17.14,87.48,17.65,88.47Z" transform="translate(0)"/><path class="cls-11" d="M27.59,89.68s-10.24,3.2-12.13-3.21-4.49-10.31,2-12.62,8.46-.25,9.61,1.74S30.21,88.69,27.59,89.68Z" transform="translate(0)"/><path class="cls-7" d="M26.13,75.63s-.66,7.46-2.2,7.14-2.94-.56-2.71,1.68,2.36,4.85-2.39,5.25S7.24,77.83,8.55,75.51C12.31,68.82,31.57,67.46,26.13,75.63Z" transform="translate(0)"/><path class="cls-5" d="M40.53,74l-9.92,2.65.31,4.1L41,80.7c.8-.06,1.33-1.6,1.2-3.44S41.34,74,40.53,74Z" transform="translate(0)"/><path class="cls-3" d="M31.65,78.66c-.08-1.13-.55-2-1-2s-.82,1-.74,2.12.56,2,1.05,2S31.74,79.79,31.65,78.66Z" transform="translate(0)"/><path class="cls-3" d="M35.33,78.53l-3.07.06a1.56,1.56,0,0,0,.07.92l3.06.2Z" transform="translate(0)"/><path class="cls-4" d="M46.31,73.89l-11.39,3,.35,4.7,11.62-.08c.92-.07,1.54-1.84,1.38-4S47.23,73.82,46.31,73.89Z" transform="translate(0)"/><path class="cls-3" d="M36.12,79.2c-.1-1.29-.64-2.31-1.2-2.27s-.94,1.13-.85,2.43.64,2.31,1.2,2.27S36.21,80.5,36.12,79.2Z" transform="translate(0)"/><path class="cls-11" d="M37.89,82.86a4.92,4.92,0,0,1-.64-3.5c.44-1.86-1.32-2.57-1.09-3.16s2.61-1.21,4.08.9.85,5.14.85,5.14Z" transform="translate(0)"/><path class="cls-12" d="M23.87,98.49a69,69,0,0,1,11.45-1,3,3,0,0,0,3-3.36l-1-10.75a3.93,3.93,0,0,1,2.42-1.56c1.87-.45,2.48.57,2.48.57S48.68,100,44,104s-22.22,6.62-22.22,6.62Z" transform="translate(0)"/><path class="cls-4" d="M402,25.53c-.61,14.14-3.9,31.45-14.36,45.38-.39.51-.77,1-1.16,1.52-1.17,1.51-2.37,3-3.58,4.42a4,4,0,0,1-5.38.59L331.14,42.58A3.65,3.65,0,0,1,330,41.09a3.94,3.94,0,0,1-.28-1.22,3.67,3.67,0,0,1,.6-2.17c1.08-1.65,2.22-3.3,3.42-4.93.37-.52.75-1,1.13-1.54C345.3,17.3,361,9.32,374.42,4.79A128.22,128.22,0,0,1,392.63.13,8.64,8.64,0,0,1,394.89,0a7.13,7.13,0,0,1,3,1,7.4,7.4,0,0,1,3.54,5.74A126.86,126.86,0,0,1,402,25.53Z" transform="translate(0)"/><path class="cls-2" d="M333.68,32.81q-2,2.79-3.87,5.61a2.78,2.78,0,0,0,.67,3.73l47.59,35.74a3.22,3.22,0,0,0,4.39-.48q2.06-2.39,4-4.94Z" transform="translate(0)"/><path class="cls-13" d="M374.93,46.91A14.08,14.08,0,0,1,363.7,24.38h0a14.08,14.08,0,1,1,13.24,22.39A15.09,15.09,0,0,1,374.93,46.91ZM375,22a11.39,11.39,0,0,0-1.54.11,10.73,10.73,0,0,0-7.12,4.21h0A10.8,10.8,0,1,0,375,22Z" transform="translate(0)"/><path class="cls-14" d="M399,4.27A8,8,0,0,0,397.89,1a7.13,7.13,0,0,0-3-1,1.1,1.1,0,0,0,0,.18,125.83,125.83,0,0,1,.6,18.79c-.61,14.14-3.9,31.45-14.36,45.37-.38.51-.77,1-1.16,1.52-.25.34-.51.67-.78,1l4.55,3.41L384,70c.39-.5.78-1,1.16-1.52C395.66,54.5,399,37.2,399.56,23.06A127.14,127.14,0,0,0,399,4.27Z" transform="translate(0)"/><path class="cls-2" d="M401.43,6.75a7.31,7.31,0,0,0-8.8-6.62,128.22,128.22,0,0,0-18.21,4.66L402,25.53A126.86,126.86,0,0,0,401.43,6.75Z" transform="translate(0)"/><path class="cls-3" d="M337.54,51.87c-4.53-3-11.65-.24-15.91,6.18s.47,17.06.47,17.06,11.66.24,15.92-6.17S342.07,54.88,337.54,51.87Z" transform="translate(0)"/><path class="cls-3" d="M363,70.56c-4.52-3-11.65-.24-15.91,6.18s.48,17.06.48,17.06,11.65.24,15.91-6.17S367.51,73.57,363,70.56Z" transform="translate(0)"/><path class="cls-4" d="M332.73,59.07c-3.13-2.08-8-.17-11,4.26s.33,11.78.33,11.78,8,.17,11-4.26S335.85,61.14,332.73,59.07Z" transform="translate(0)"/><path class="cls-4" d="M358.23,77.74c-3.13-2.08-8.05-.17-11,4.26s.33,11.78.33,11.78,8,.16,11-4.27S361.35,79.81,358.23,77.74Z" transform="translate(0)"/><path class="cls-15" d="M368.64,39.83l14.6-2.58a9.52,9.52,0,0,1-14.6,2.58Z" transform="translate(0)"/><path class="cls-15" d="M384.42,32.34l-18.49,3.5a9.52,9.52,0,1,1,18.49-3.5Z" transform="translate(0)"/><path class="cls-11" d="M90,165.47s3.09.8,5.06.2,5.35.39,5.9,1.1.35,1-.63,1.25-4.42,1.72-6.68.87a18.12,18.12,0,0,0-5.23-.88Z" transform="translate(0)"/><path class="cls-3" d="M63.21,138.58s3.47,24.72,9.23,26.93c2.84,1.09,15.4,3.57,19.11,3.82,0,0,.91-.74.69-3.74,0,0-13.15-4.83-15-7.46-2.78-3.91,1.72-16-1.77-19.64S66.09,133.24,63.21,138.58Z" transform="translate(0)"/><path class="cls-4" d="M68.46,233.7v-5.39h8.48a.41.41,0,0,0,.42-.41V227a.42.42,0,0,0-.42-.41H68.46V196a1.58,1.58,0,0,0-1.57-1.57H65.22A1.57,1.57,0,0,0,63.65,196v30.67H55.17a.42.42,0,0,0-.42.41v.87a.41.41,0,0,0,.42.41h8.48v5.39c-6.14.47-11,2.68-12.43,5.53H80.89C79.51,236.38,74.6,234.17,68.46,233.7Z" transform="translate(0)"/><path class="cls-10" d="M64.38,190.65a44.29,44.29,0,0,0,3.39,4.86c3.74,4.72,7.81,8.61,8.52,12.29a15.63,15.63,0,0,0,.66,2.35c.29.84.66,1.73,1.08,2.64a81.53,81.53,0,0,0,6.33,10.82c4.09,6.06,7.94,11.12,7.94,11.12l7.06-.3c-.29-.71-3.36-9.08-7.48-19.32-1.68-4.15-3.45-8.57-5.17-12.83l-.68-1.7c-.53-1.3-1-2.59-1.55-3.84l-7-17.26s-15.45-5.86-17.06-2.06C59.15,180.55,60.23,183.61,64.38,190.65Z" transform="translate(0)"/><path class="cls-10" d="M92.52,233.31s.36,5.83,1.49,5.91h12.82a2.33,2.33,0,0,0-2.13-2.11c-2.07-.37-5.55-1.83-6.81-4.57C96.57,229.66,92.52,233.31,92.52,233.31Z" transform="translate(0)"/><path class="cls-10" d="M76.17,216.81S71.26,220,71.74,221c.06.13,2.78,5,2.78,5l3.5,6.19a2.31,2.31,0,0,0,.77-2.87c-.69-2-1.12-5.73.67-8.17S76.17,216.81,76.17,216.81Z" transform="translate(0)"/><path class="cls-12" d="M82.79,176.69s19.43,12.1,21.59,20.22-25.81,25.44-25.81,25.44-3.06-2.7-3.6-4.69c0,0,12.64-15.15,15.38-18.54C92,197,65.45,191.9,62.2,186.84s-2.09-9.3-2.09-9.3Z" transform="translate(0)"/><rect class="cls-3" x="44.76" y="192.22" width="42.59" height="10.83" rx="1.44"/><path class="cls-11" d="M76.8,137c-4.65,1.2-12.35-3.11-12.35-3.11a11.41,11.41,0,0,0,4.1-6.43c0-.22.11-.45.15-.68l2.39-.51,3.55,3.18a29.85,29.85,0,0,1-.53,3.59c-.08.4-.16.82-.27,1.28A10.91,10.91,0,0,1,76.8,137Z" transform="translate(0)"/><path class="cls-5" d="M83.4,176.05a.83.83,0,0,1,0,.15c-.45,1.26-4.62,3-8.45,4.13-1.37.43-2.7.79-3.8,1-3,.68-10.39,1.89-11-.15-.75-2.35.12-16-.54-24.93-.79-10.94,2.24-20.91,6.45-24.16.32-.23,1,.39,2.78,1.26a8.24,8.24,0,0,0,5.12.68l1.42,1.21a15.78,15.78,0,0,1,5.07,7.83,63.36,63.36,0,0,1,1.38,9.83c.13,1.56.24,3.18.34,4.82.15,2.6.28,5.23.34,7.73,0,0,0,.1,0,.15v.09c0,.25,0,.53,0,.78.07,2.24.06,4.33.13,6.1,0,0,0,.1,0,.14a9.42,9.42,0,0,0,.78,2.78A1.14,1.14,0,0,1,83.4,176.05Z" transform="translate(0)"/><path class="cls-3" d="M83.4,176.05a.83.83,0,0,1,0,.15c-.45,1.26-4.62,3-8.45,4.13A33.73,33.73,0,0,1,68,158.94l14.46,6.55s0,.1,0,.15v.09c0,.25,0,.53,0,.78.07,2.24.06,4.33.13,6.1,0,0,0,.1,0,.14a9.42,9.42,0,0,0,.78,2.78A1.14,1.14,0,0,1,83.4,176.05Z" transform="translate(0)"/><path class="cls-16" d="M74.64,129.48a29.85,29.85,0,0,1-.53,3.59,9.41,9.41,0,0,1-5.56-5.58c0-.22.11-.45.15-.68l2.39-.51Z" transform="translate(0)"/><path class="cls-11" d="M76,129.45s-7.62.86-8.08-3.89-1.75-7.84,3.09-8.59,6,1,6.51,2.52S78,129.1,76,129.45Z" transform="translate(0)"/><path class="cls-17" d="M68,125.88a7.84,7.84,0,0,1,7.42-7c4.75-.44,2.1-4.53,1.6-5.18,0,0-3.64.5-7.37,1.11C61.81,116.15,67.23,124.9,68,125.88Z" transform="translate(0)"/><polygon class="cls-7" points="110.53 154.21 105.17 170.72 86.3 170.32 86.27 171.47 105.53 171.88 111.2 154.42 110.53 154.21"/><path class="cls-11" d="M88.36,169.27s3,1.13,5,.76,5.28,1,5.75,1.74.23,1-.76,1.18-4.59,1.22-6.75.12a18.15,18.15,0,0,0-5.09-1.45Z" transform="translate(0)"/><path class="cls-5" d="M64.74,139.6s.73,24.94,6.21,27.78c2.7,1.4,14.91,5.24,18.57,5.9,0,0,1-.63,1.1-3.64,0,0-12.54-6.25-14.11-9.07-2.33-4.19,3.48-15.68.41-19.72S68.19,134.6,64.74,139.6Z" transform="translate(0)"/><path class="cls-11" d="M405.38,158.81l.92,1.48c.47.55.6.86,1,1a4.68,4.68,0,0,1,2.72,4s0,1.37-.95.92-.51-.4-1.82-1-1.78-2.5-1.9-3.15l-1.06-1.4Z" transform="translate(0)"/><path class="cls-11" d="M378.41,238.08a1.26,1.26,0,0,1-.82,1.09h0a8.27,8.27,0,0,1-3.91.08l-.55-.06h-.22c-1.57-.1-1.45.38-4.45.37-3.43,0-4.59-1.17-4.74-1.66s1.36-.74,3-1.12l.24,0,.68-.15c2-.47,4-1.06,4.63-3s.53-8.08.53-8.08h6.06s-1.59,6.67-1.42,8.6c.09,1,.58,1.32.77,2.21a1.16,1.16,0,0,0,0,.18A6.07,6.07,0,0,1,378.41,238.08Z" transform="translate(0)"/><path class="cls-4" d="M385.47,172.77c-.52,2.87-1.25,5.84-1.88,8.93a46.13,46.13,0,0,0-1,15.92,21.68,21.68,0,0,1,.17,2.41c.15,10-4.34,28.23-4.34,28.23a7.89,7.89,0,0,1-3.26.43,10.23,10.23,0,0,1-2.66-.73s-.43-11.28-.45-26.45c0-11-2.18-25.48-2.62-34a110,110,0,0,1,.31-12s8.95-7.19,12.16-3.51S387.38,162,385.47,172.77Z" transform="translate(0)"/><path class="cls-3" d="M382.59,197.62a21.68,21.68,0,0,1,.17,2.41c-6.7-9.71-8.18-30.86-8.18-30.86l7.35,3.57s.81,4,1.66,9A46.13,46.13,0,0,0,382.59,197.62Z" transform="translate(0)"/><path class="cls-11" d="M397.76,238.08a1.26,1.26,0,0,1-.82,1.09h0a8.27,8.27,0,0,1-3.91.08l-.55-.06h-.22c-1.57-.1-1.45.38-4.46.37-3.42,0-4.58-1.17-4.74-1.66s1.37-.74,3.05-1.12l.24,0,.67-.15c2-.47,4-1.06,4.64-3s-.3-8-.3-8l5.62-.47s-.35,6.78-.19,8.7a17.74,17.74,0,0,0,.81,2.49l0,.18A5.68,5.68,0,0,1,397.76,238.08Z" transform="translate(0)"/><path class="cls-4" d="M397,228.78a13.75,13.75,0,0,1-2.48.89,11.83,11.83,0,0,1-3.2-.2,148.14,148.14,0,0,0-3-18.91,177.16,177.16,0,0,0-9.15-29c-.88-2.1-4.54-12-5.17-14.53-1.87-7.57,0-6.76,0-6.76l16.42-1.92s2,1,3,11.73c.27,3.2.31,17,.73,19.64a29.28,29.28,0,0,0,1.41,5.89C398.49,203.13,397,228.78,397,228.78Z" transform="translate(0)"/><path class="cls-2" d="M397.76,238.08a1.26,1.26,0,0,1-.82,1.09h0a9.72,9.72,0,0,1-3.91.08l-.55-.06h-.22c-1.57-.1-1.45.38-4.46.37-3.42,0-4.58-1.17-4.74-1.66s1.37-.74,3.05-1.12a10,10,0,0,0,5.17.92c2.31-.22,4.66-1.14,6.32-1.37l0,.18A5.68,5.68,0,0,1,397.76,238.08Z" transform="translate(0)"/><path class="cls-2" d="M378.41,238.08a1.26,1.26,0,0,1-.82,1.09h0a9.67,9.67,0,0,1-3.9.08l-.56-.06h-.22c-1.57-.1-1.45.38-4.45.37-3.43,0-4.59-1.17-4.74-1.66s1.36-.74,3-1.12a10,10,0,0,0,5.17.92c2.31-.22,4.66-1.14,6.32-1.37a1.16,1.16,0,0,0,0,.18A6.07,6.07,0,0,1,378.41,238.08Z" transform="translate(0)"/><path class="cls-3" d="M371.84,109.21c-.55-4.53.86-11.78,9.9-10.62s11.89,10,10.07,14,2.62,4.91,4,9.16c1.2,3.65,1.61,8.18,3.56,10.21,6.25,6.56-6,16.64-13.41,14.51-13.47-3.87-15.2-4.45-14.72-15,.24-5.42,4.46-7.52,1.78-9.09C366.57,118.55,373.09,119.46,371.84,109.21Z" transform="translate(0)"/><path class="cls-11" d="M385.13,121.07l-2.49,6.43-5.38.26-2.68-4a7.45,7.45,0,0,0,2.67-5,14.37,14.37,0,0,0,.1-3.31c0-.34-.08-.55-.08-.55l6.7-2h0c.08,1.78.17,3.17.28,4.26C384.66,121,385.13,121.07,385.13,121.07Z" transform="translate(0)"/><path class="cls-11" d="M374.56,120.84c.34,0,6.21-1.19,16.13,1.34,0,0-5.43,24.88-3.59,29.57a49.28,49.28,0,0,1,2.55,8.85l-20,.25s.28-16.1-.64-21.79S374.56,120.84,374.56,120.84Z" transform="translate(0)"/><path class="cls-1" d="M400.09,146.87c-1-6.91-4.71-21.11-7.21-23.44-2.21-2.05-7-2.24-7-2.24h0c-1,1.55-4.37,5.4-8.57,4.71-2.27-.38-2.73-4.45-2.78-5l0-.06h-.07c-.66.1-5.93,1-7.49,3.64-2.31,4-4.82,15.89-7.29,15.71-1.13-.08-12.53-4.36-12.53-4.36a5,5,0,0,0-1.54,4A118.3,118.3,0,0,0,356.05,146c.66.34,1.3.64,1.91.91,1.72.76,3.17,1.19,4,1a2.47,2.47,0,0,0,.71-.3,13.9,13.9,0,0,0,3.4-3.4c.76-1,1.51-2.06,2.17-3.06l0-.07a73.09,73.09,0,0,1,.27,11.14c-.22,2.46-.38,7.78,0,9.16.88,2.86,7.34,3.62,13.37,3.32a38.7,38.7,0,0,0,6.31-.64,4.59,4.59,0,0,0,3.78-3c.67-1.6-2.41-9.13-2.7-12.42a19.12,19.12,0,0,1,.94-7.8c2.13,4.91,4.3,8.43,4.58,9.19.6,1.6,9.69,11.75,9.69,11.75a4.2,4.2,0,0,0,1.31-.54,3,3,0,0,0,.9-.91C405.13,156.47,400.09,146.87,400.09,146.87Z" transform="translate(0)"/><path class="cls-2" d="M392,161a4.59,4.59,0,0,1-3.78,3c-2.84-.54-4.71-5.76-5.67-8.32-1.11-3,4.67-18.17,6.27-18,1.18.1,1.39,2.12,1.42,3.11a19,19,0,0,0-.94,7.8C389.6,151.88,392.68,159.41,392,161Z" transform="translate(0)"/><path class="cls-11" d="M347.28,137s-1-2.38-2-2.48-4.47-.63-4.72-.15a3.37,3.37,0,0,0,.73,2.87c.73.64,5.26,1.66,5.26,1.66Z" transform="translate(0)"/><path class="cls-2" d="M368.2,141.12c-.66,1-1.41,2.07-2.17,3.06a18.15,18.15,0,0,1-3.4,3.4,2.47,2.47,0,0,1-.71.3c-.79.19-2.24-.24-4-1a18.85,18.85,0,0,0,3,0c1.73-.15,2.23-2,5-4.82C367.57,140.34,368.06,140.6,368.2,141.12Z" transform="translate(0)"/><path class="cls-16" d="M384,112.91c-1,1.66-3.45,5.07-6.72,5.9a14.37,14.37,0,0,0,.1-3.31c0-.34-.08-.55-.08-.55Z" transform="translate(0)"/><path class="cls-11" d="M375.52,115.41s8.05,1.62,9-3.42,2.59-8.2-2.51-9.45-6.46.49-7.18,2.09S373.45,114.86,375.52,115.41Z" transform="translate(0)"/><path class="cls-3" d="M379.45,101.29s-.14,1.7,2.51,4.6,2.13,8.75,2.13,8.75,4.35-9.09,2-11.77S379.45,101.29,379.45,101.29Z" transform="translate(0)"/><path class="cls-3" d="M382.69,99.07s-4-1.34-8,2.57c-1.71,1.69-1.45,5-.53,6.93,0,0,1.4-4.13,4-5S382.69,99.07,382.69,99.07Z" transform="translate(0)"/><path class="cls-14" d="M378,112.93s-.21.6-1.73.33c0,0-1.27-.23-1.15-.9A4.18,4.18,0,0,1,378,112.93Z" transform="translate(0)"/><path class="cls-18" d="M253.58,114.86c2.18,12.38-5.05,22.42-16.15,22.42a22,22,0,0,1-2.18-.58c9.88-1.19,16.09-10.26,14.05-21.84s-11.59-21.11-21.89-22.3a18.14,18.14,0,0,1,2.11-.12C240.62,92.44,251.39,102.47,253.58,114.86Z" transform="translate(0)"/><path class="cls-3" d="M262.45,121.33c3.16,0,5.21-2.92,4.57-6.53s-3.71-6.52-6.87-6.52a3.44,3.44,0,0,0-.46,0c-.48-1.33-1-2.63-1.63-3.9a5.61,5.61,0,0,0,2-5.74c-.62-3.5-3.53-6.35-6.59-6.52l-3.72,0a4.93,4.93,0,0,0-.55,0c-.38-.36-.76-.7-1.15-1a6.4,6.4,0,0,0,.45-3.87c-.64-3.61-3.72-6.53-6.88-6.53h-.07l-3.1.06h-.27a3.54,3.54,0,0,0-.46,0h0a4.4,4.4,0,0,0-2.29.88,4.82,4.82,0,0,0-1.47,2l-.23,0q0-.33-.09-.66c-.63-3.61-3.71-6.53-6.87-6.53l-3.39.06h-.27a4.17,4.17,0,0,0-.72.09h0c-.14,0-5.14,1.86-3.43,8.15l-.35.15a8.52,8.52,0,0,0-2.76-3.09,5.44,5.44,0,0,0-3.82-1l-3,0h0c-3.09.08-5.07,3-4.45,6.52a8.44,8.44,0,0,0,2.25,4.36l-.31.42-1,0a3.4,3.4,0,0,0-.45,0,3.48,3.48,0,0,0-.57,0l-2.62,0h-.63l-.3,0c-2.77.39-4.49,3.14-3.9,6.48a8.22,8.22,0,0,0,4.79,6.11,30.6,30.6,0,0,0-.2,3.49l-1.15,0h-.15l-.35,0h-.22v0c-2.84.32-4.61,3.1-4,6.49.64,3.6,3.71,6.52,6.87,6.52l1.29,0c.3.84.63,1.67,1,2.49-2.21.81-3.49,3.3-3,6.25.61,3.46,3.48,6.3,6.51,6.51h.36l.47,0,2.9,0h.08a4.68,4.68,0,0,0,1.14-.14c.47.48,1,.94,1.44,1.39a6.31,6.31,0,0,0-.59,4.18c.63,3.6,3.71,6.52,6.87,6.52l3.37-.05h.07a4.47,4.47,0,0,0,4.18-2.75c.38.1.76.2,1.15.28,0,.22.05.44.09.67.63,3.6,3.71,6.52,6.87,6.52l3.44-.05h.23c3-.14,5-3,4.34-6.52,0-.22-.09-.44-.14-.66l.32-.09a6.81,6.81,0,0,0,5.08,2.66l3.31-.05h.13c3.16,0,5.21-2.92,4.57-6.52a8.4,8.4,0,0,0-1.64-3.67c.43-.55.83-1.12,1.22-1.71h3.95c3.16,0,5.21-2.92,4.58-6.53a8.29,8.29,0,0,0-4.39-5.92c.09-.92.13-1.86.14-2.82A3.71,3.71,0,0,0,262.45,121.33Zm-25.16,15.48c-11.13,0-21.91-9.94-24.07-22.19s5.11-22.2,16.24-22.2,21.91,9.94,24.07,22.2S248.42,136.81,237.29,136.81Z" transform="translate(0)"/><path class="cls-4" d="M262.38,121.33c3.16,0,5.21-2.92,4.57-6.52s-3.71-6.53-6.87-6.53a3.71,3.71,0,0,0-.47,0,39.13,39.13,0,0,0-1.63-3.9,5.61,5.61,0,0,0,2-5.74c-.64-3.6-3.72-6.53-6.88-6.53a4.4,4.4,0,0,0-3,1.09c-.7-.71-1.43-1.39-2.17-2a6.4,6.4,0,0,0,.44-3.87c-.63-3.61-3.71-6.53-6.87-6.53A4.61,4.61,0,0,0,237,84.64a30.51,30.51,0,0,0-3.35-1q0-.33-.09-.66c-.64-3.61-3.71-6.53-6.87-6.53s-5.21,2.92-4.57,6.53c0,.22.08.44.14.66a22.36,22.36,0,0,0-3.67,1.26,7.25,7.25,0,0,0-6.05-4.13c-3.16,0-5.2,2.92-4.57,6.53a8.48,8.48,0,0,0,2.25,4.36c-.47.63-.92,1.28-1.33,2a6.3,6.3,0,0,0-3.91-1.5c-3.16,0-5.21,2.93-4.57,6.53a8.19,8.19,0,0,0,4.79,6.1,31.61,31.61,0,0,0-.21,3.67,5.69,5.69,0,0,0-1.29-.16c-3.16,0-5.21,2.92-4.57,6.53s3.71,6.52,6.87,6.52a4.93,4.93,0,0,0,1.23-.16c.32.89.67,1.76,1,2.63-2.21.8-3.49,3.29-3,6.24.63,3.61,3.71,6.53,6.87,6.53a4.44,4.44,0,0,0,3.37-1.48c.85.94,1.73,1.83,2.65,2.68a6.38,6.38,0,0,0-.59,4.18c.64,3.6,3.72,6.52,6.88,6.52a4.59,4.59,0,0,0,4.53-3.83,30.52,30.52,0,0,0,4.24,1.31c0,.22,0,.44.08.66.64,3.61,3.72,6.53,6.88,6.53s5.2-2.92,4.57-6.53q-.06-.33-.15-.66a21.64,21.64,0,0,0,3.13-1,7.06,7.06,0,0,0,5.71,3.55c3.16,0,5.21-2.92,4.57-6.52a8.27,8.27,0,0,0-1.63-3.67,23.09,23.09,0,0,0,1.86-2.77,6.07,6.07,0,0,0,3.31,1.06c3.16,0,5.21-2.92,4.57-6.53a8.25,8.25,0,0,0-4.38-5.92c.08-.92.13-1.86.13-2.82A3.87,3.87,0,0,0,262.38,121.33Zm-25.09,15.48c-11.13,0-21.91-9.94-24.07-22.19s5.11-22.2,16.24-22.2,21.91,9.94,24.07,22.2S248.42,136.81,237.29,136.81Z" transform="translate(0)"/><path class="cls-2" d="M291,115.75c1.67,9.47-3.86,17.14-12.35,17.14a14.76,14.76,0,0,1-1.67-.45c7.56-.91,12.31-7.84,10.75-16.69s-8.86-16.14-16.74-17a14.26,14.26,0,0,1,1.62-.09C281.09,98.61,289.33,106.28,291,115.75Z" transform="translate(0)"/><path class="cls-10" d="M297.78,120.7c2.42,0,4-2.24,3.5-5s-2.84-5-5.26-5l-.35,0a31.22,31.22,0,0,0-1.25-3,4.29,4.29,0,0,0,1.53-4.39c-.48-2.67-2.7-4.85-5-5l-2.85,0a3,3,0,0,0-.42,0l-.87-.8a5,5,0,0,0,.34-3c-.49-2.75-2.84-5-5.26-5h-.05l-2.38,0h-.2l-.35,0h0a3.3,3.3,0,0,0-1.75.68,3.62,3.62,0,0,0-1.13,1.5l-.17,0c0-.17,0-.34-.07-.51-.48-2.76-2.84-5-5.25-5l-2.6,0h-.2a3.19,3.19,0,0,0-.55.06h0c-.11,0-3.93,1.43-2.62,6.24l-.27.11a6.53,6.53,0,0,0-2.11-2.36,4.18,4.18,0,0,0-2.92-.77H257c-2.36.06-3.87,2.27-3.39,5a6.42,6.42,0,0,0,1.71,3.34c-.07.11-.15.21-.23.32h-.79l-.35,0a3.11,3.11,0,0,0-.43,0l-2,0H251l-.23,0c-2.12.29-3.43,2.4-3,5a6.26,6.26,0,0,0,3.66,4.67,25.87,25.87,0,0,0-.16,2.67h-1.42c-2.17.25-3.52,2.38-3.06,5,.48,2.75,2.83,5,5.25,5l1,0c.23.64.49,1.28.76,1.9-1.69.62-2.67,2.52-2.27,4.78a6,6,0,0,0,5,5h.28l.35,0,2.22,0h.06a3.45,3.45,0,0,0,.87-.11c.36.36.73.72,1.1,1.06a4.88,4.88,0,0,0-.45,3.2c.49,2.75,2.84,5,5.26,5l2.57,0h.06a3.43,3.43,0,0,0,3.19-2.11l.88.22c0,.16,0,.33.07.51.48,2.75,2.84,5,5.25,5l2.63,0H281c2.31-.11,3.79-2.3,3.32-5,0-.17-.07-.34-.11-.5l.25-.07a5.19,5.19,0,0,0,3.87,2l2.54-.05H291c2.42,0,4-2.24,3.5-5a6.4,6.4,0,0,0-1.25-2.81c.33-.42.64-.85.93-1.3h3c2.42,0,4-2.24,3.5-5a6.36,6.36,0,0,0-3.35-4.53c.06-.71.1-1.43.1-2.15Zm-19.23,11.83c-8.51,0-16.75-7.6-18.4-17s3.9-17,12.41-17,16.75,7.59,18.4,17S287.06,132.53,278.55,132.53Z" transform="translate(0)"/><path class="cls-19" d="M297.73,120.7c2.41,0,4-2.24,3.49-5s-2.84-5-5.25-5l-.36,0a31.16,31.16,0,0,0-1.24-3,4.29,4.29,0,0,0,1.52-4.39c-.49-2.75-2.84-5-5.25-5a3.4,3.4,0,0,0-2.27.83c-.54-.54-1.09-1.06-1.66-1.56a4.88,4.88,0,0,0,.34-3c-.49-2.75-2.84-5-5.25-5a3.52,3.52,0,0,0-3.47,3,19.8,19.8,0,0,0-2.57-.75,4.43,4.43,0,0,0-.06-.51c-.49-2.76-2.84-5-5.26-5s-4,2.23-3.49,5a4.64,4.64,0,0,0,.11.51,16.32,16.32,0,0,0-2.81,1,5.53,5.53,0,0,0-4.62-3.16c-2.42,0-4,2.24-3.5,5A6.47,6.47,0,0,0,257.85,98a17.09,17.09,0,0,0-1,1.5,4.8,4.8,0,0,0-3-1.15c-2.42,0-4,2.24-3.5,5A6.28,6.28,0,0,0,254,108a25.69,25.69,0,0,0-.16,2.8,4,4,0,0,0-1-.12c-2.42,0-4,2.23-3.5,5s2.84,5,5.25,5a3.63,3.63,0,0,0,.95-.13c.24.68.5,1.35.79,2-1.69.62-2.67,2.52-2.27,4.78.48,2.75,2.84,5,5.25,5a3.4,3.4,0,0,0,2.58-1.13c.65.71,1.32,1.4,2,2a4.82,4.82,0,0,0-.45,3.2c.48,2.75,2.83,5,5.25,5a3.53,3.53,0,0,0,3.47-2.94,22.33,22.33,0,0,0,3.23,1c0,.16,0,.33.07.51.49,2.75,2.84,5,5.26,5s4-2.23,3.49-5c0-.18-.07-.35-.11-.51a17.16,17.16,0,0,0,2.39-.79,5.42,5.42,0,0,0,4.37,2.72c2.41,0,4-2.24,3.49-5a6.4,6.4,0,0,0-1.25-2.81,18.16,18.16,0,0,0,1.43-2.11,4.63,4.63,0,0,0,2.53.81c2.41,0,4-2.24,3.49-5a6.29,6.29,0,0,0-3.35-4.53c.06-.71.1-1.43.1-2.15Zm-19.18,11.83c-8.51,0-16.75-7.6-18.4-17s3.9-17,12.41-17,16.75,7.59,18.4,17S287.06,132.53,278.55,132.53Z" transform="translate(0)"/><polygon class="cls-20" points="133.91 123.02 144.4 162.15 153.71 162.15 143.23 123.02 133.91 123.02"/><polygon class="cls-21" points="146.39 119.02 157.94 162.15 167.26 162.15 155.7 119.02 146.39 119.02"/><polygon class="cls-22" points="157.94 112.14 171.34 162.15 180.66 162.15 167.26 112.14 157.94 112.14"/><polygon class="cls-23" points="180.01 107.07 170.69 107.07 184.09 157.09 193.41 157.09 180.01 107.07"/><path class="cls-24" d="M135.29,119.19l10-7.67.76,2.82a1.71,1.71,0,0,0,1,1.09,1.13,1.13,0,0,0,1.25-.12l10.66-10.19,1.5,1.34c.18.16.42.09.4-.12l-.48-4.27a.34.34,0,0,0-.31-.28l-4.43-.15c-.22,0-.27.25-.09.41l1.33,1.2-9,8.62-.69-2.58a1.71,1.71,0,0,0-.92-1.07,1.19,1.19,0,0,0-1.24,0l-11.54,8.87a1.16,1.16,0,0,0,.08,1.69,1.67,1.67,0,0,0,1.19.56A1,1,0,0,0,135.29,119.19Z" transform="translate(0)"/><path class="cls-10" d="M132.4,151.45l.39,1.52A4.25,4.25,0,0,1,132.4,151.45Z" transform="translate(0)"/><path class="cls-13" d="M330.44,169.61H137.14L132.79,153c4,8.61,36.57-.81,43.87-6,13.35-9.64,13.44-19.12,27.26-25.56,18.7-8.73,37.4,4.94,52.44,1.2,46.13-11.43,84.38-48.81,85.56-50-13,30-44.51,45.76-20.26,55.6C346.83,138.37,330.44,169.61,330.44,169.61Z" transform="translate(0)"/><path class="cls-15" d="M136.52,85a20.63,20.63,0,0,0-3.4-1.4,13.18,13.18,0,0,1-1.7-.68,1.63,1.63,0,0,1-.83-1,1.12,1.12,0,0,1,.17-1.2,1.54,1.54,0,0,1,1.18-.43,4.67,4.67,0,0,1,1.46.33,4.72,4.72,0,0,0,1.27.33.87.87,0,0,0,.7-.27.75.75,0,0,0,.08-.74,1.82,1.82,0,0,0-.87-1,5.86,5.86,0,0,0-3.18-.79,3.8,3.8,0,0,0-2.82,1,2.65,2.65,0,0,0-.51,2.86,4.73,4.73,0,0,0,2.54,2.91l3.45,1.25a3.22,3.22,0,0,1,2.22,1.89,1.54,1.54,0,0,1-.18,1.43,1.48,1.48,0,0,1-1.26.59,5.72,5.72,0,0,1-1.57-.22s-.38-.14-1.06-.36a3.85,3.85,0,0,0-1-.27.93.93,0,0,0-.73.28.82.82,0,0,0-.08.78c.2.67.91,1.19,2.12,1.55a8.72,8.72,0,0,0,2.61.42,4,4,0,0,0,3.12-1.13,3.21,3.21,0,0,0,.46-3.28A5,5,0,0,0,136.52,85Z" transform="translate(0)"/><path class="cls-15" d="M142.51,80.49h2c1,0,1.39-.37,1.16-1.1s-.85-1.12-1.87-1.12h-6.21c-1,0-1.42.38-1.2,1.12s.84,1.1,1.85,1.1h1.92l3.12,10.21c.32,1,.87,1.55,1.66,1.55s1.06-.52.74-1.55Z" transform="translate(0)"/><path class="cls-15" d="M159.32,90.47l-7.33-11a2.69,2.69,0,0,0-2.21-1.42c-.82,0-1.27.51-1.33,1.54l-.72,10.85a2.16,2.16,0,0,0,.09.68,1.54,1.54,0,0,0,.58.79,1.59,1.59,0,0,0,.91.29c.53,0,.82-.33.85-1l.09-2.28h5.59l1.43,2.22a1.91,1.91,0,0,0,1.55,1.06,1,1,0,0,0,.75-.29.76.76,0,0,0,.12-.77A3.08,3.08,0,0,0,159.32,90.47Zm-9-3.62.23-5.83a1.52,1.52,0,0,1,0-.19l3.89,6Z" transform="translate(0)"/><path class="cls-15" d="M169.27,90l-4.61-3.81q3.65-.25,2.58-3.77a5.39,5.39,0,0,0-2.33-3.1,6.64,6.64,0,0,0-3.64-1h-2.71c-1,0-1.34.53-1,1.58l3.33,10.88c.32,1,.87,1.56,1.66,1.56s1.07-.52.75-1.55l-1.39-4.53.13.09,6,5.25a2.45,2.45,0,0,0,1.46.74.87.87,0,0,0,.71-.29.84.84,0,0,0,.09-.77A2.88,2.88,0,0,0,169.27,90ZM163,84.64a7.76,7.76,0,0,1-1.61-.12l-1.25-4.07h1.77a2.7,2.7,0,0,1,2.87,2C165.21,83.92,164.62,84.64,163,84.64Z" transform="translate(0)"/><path class="cls-15" d="M173,80.49h2c1,0,1.39-.37,1.17-1.1s-.86-1.12-1.88-1.12h-6.21c-1,0-1.42.38-1.2,1.12s.85,1.1,1.86,1.1h1.91l3.12,10.21c.32,1,.87,1.55,1.66,1.55s1.06-.52.74-1.55Z" transform="translate(0)"/><path class="cls-15" d="M187.7,90.6a1.89,1.89,0,0,0-.67-.93,1.71,1.71,0,0,0-1.05-.39.92.92,0,0,0-.81.39,1,1,0,0,0-.1.93,1.83,1.83,0,0,0,.67.93,1.76,1.76,0,0,0,1,.38.94.94,0,0,0,.81-.38A1,1,0,0,0,187.7,90.6Z" transform="translate(0)"/><path class="cls-15" d="M186.22,86.32l-2.11-6.91c-.31-1-.85-1.5-1.63-1.5s-1,.5-.69,1.5l2.12,6.91c.31,1,.86,1.56,1.64,1.56S186.54,87.36,186.22,86.32Z" transform="translate(0)"/><path class="cls-25" d="M303,169.61H209.13a40,40,0,0,0,12.38-17.18c4.92-13.81,21.7-8.11,36.52-10.49s44.79-32.61,45.82-29.13c.54,1.87-6.15,26.42,3.68,29.2S321,160.08,303,169.61Z" transform="translate(0)"/></svg>